<?xml version="1.0" encoding="utf-8"?>
<!-- Generator: Adobe Illustrator 15.0.0, SVG Export Plug-In . SVG Version: 6.00 Build 0)  -->
<!DOCTYPE svg PUBLIC "-//W3C//DTD SVG 1.1//EN" "http://www.w3.org/Graphics/SVG/1.1/DTD/svg11.dtd">
<svg version="1.1" id="Layer_1" xmlns="http://www.w3.org/2000/svg" xmlns:xlink="http://www.w3.org/1999/xlink" x="0px" y="0px"
	 width="133px" height="69px" viewBox="0 0 133 69" enable-background="new 0 0 133 69" xml:space="preserve">
<path fill="none" stroke="#000000" stroke-miterlimit="10" d="M7.723,17.63l64.448,28.665l11.428-4.31c0,0,2.811-1.687,2.811,2.248
	s-0.281,2.248-0.281,5.621c0,3.372,4.59,1.124,4.59,1.124l4.965-1.874l5.62-2.342l13.958-5.059c0,0,1.405-1.592,1.405-3.56
	c0-1.967-0.094-7.774,2.061-8.524c3.372-1.312,3.841-1.405,3.841-1.405l2.247-0.937l2.062-0.749L128,26.061l-3.935-1.218
	L87.252,12.947L61.538,4.75L48.471,8.169L18.87,15.288L7.723,17.63z"/>
<path fill="none" stroke="#000000" stroke-miterlimit="10" d="M87.935,50.588c-0.537,0-0.683-0.091-0.683-0.733
	c0-1.541,0.059-1.95,0.121-2.384c0.078-0.548,0.16-1.114,0.16-3.237c0-3.368-1.883-3.731-2.691-3.731
	c-0.776,0-1.449,0.315-1.72,0.462L72.206,45.08L11.355,18.016l7.746-1.627l29.632-7.126L61.508,5.92l25.402,8.098l36.81,11.896
	l0.845,0.261l-0.134,0.049l-2.227,0.926c-0.521,0.147-1.907,0.655-3.885,1.425c-2.449,0.851-2.785,4.991-2.777,9.336v0.235
	c0,1.15-0.655,2.186-0.966,2.612l-13.656,4.949l-5.67,2.361l-4.979,1.878l-0.048,0.023C89.87,50.141,88.766,50.588,87.935,50.588z"
	/>
<polyline fill="none" stroke="#000000" stroke-miterlimit="10" points="61.508,5.92 61.508,16.272 115.073,35.382 "/>
<line fill="none" stroke="#000000" stroke-miterlimit="10" x1="30.063" y1="25.265" x2="61.508" y2="16.272"/>
<polyline fill="none" stroke="#000000" stroke-miterlimit="10" points="128,26.061 127.859,41.143 71.796,62.5 72.171,46.295 "/>
<polyline fill="none" stroke="#000000" stroke-miterlimit="10" points="71.796,62.5 8.285,31.494 7.723,17.63 "/>
</svg>
